<svg style="display: none;">
<symbol id="airplane" viewBox="0 0 56 32">
    <path d="M29.2569148,14 L22.3534304,14 L31.0461206,7.52941176 L32.8781705,7.52941176 L29.2569148,14 Z M51.7249064,1.88235294 L53.8885322,1.88235294 L52.2744283,14 L43.6525239,14 L51.7249064,1.88235294 Z M50.6295884,17.8305882 L50.0223202,17.2169412 C49.847684,17.0404706 49.6108773,16.9411765 49.3638254,16.9411765 L41.9126819,16.9411765 C41.3983202,16.9412941 40.9814054,17.3628235 40.9815218,17.8825882 C40.9816383,18.2588235 41.2035426,18.5989412 41.5457131,18.7472941 L45.7183534,20.5543529 L44.9369148,20.9487059 C40.3521331,23.2584706 35.3001414,23.9934118 30.177131,24 L29.2569148,24 L28.5695468,23.0352941 L26.7728898,21.0174118 L25.3888399,22.2767059 L26.2270936,23.2178824 L28.1280665,25.3552941 L32.3705613,30.1176471 L31.0153846,30.1176471 L17.2792017,20.864 L16.2453555,22.4301176 L18.918973,24 L3.14001465,24 C2.67548242,23.9997647 1.93624948,24.1242353 1.87209979,23.6592941 C2.37109356,22.2194118 2.96522679,21.1298329 3.979048,19.9993623 L10.0128776,19.9993623 L10,18 L6,18 C7.84520582,16.7724706 10.3524324,16.0003529 12.5616965,16 L52.5808565,16 L50.6295884,17.8305882 Z M46.4504283,18.8235294 L48.9782287,18.8235294 L50.8736133,20.7388235 L46.4504283,18.8235294 Z M34.4615385,5.64705882 L30.7359667,5.64705882 C30.5344366,5.64705882 30.3383784,5.71305882 30.177131,5.83529412 L19.355418,14 L13,14 C7.32048233,13.9948235 1.83868607,17.7857647 0.0475010395,23.232 C0.015950104,23.3278824 -0.000116424116,23.4283529 -2.11758237e-21,23.5294118 C-2.11758237e-21,25.0888235 0.964216947,25.9120651 2.50741861,25.9120651 L21.7262527,25.9120651 L30.2218378,31.8418824 C30.374237,31.9442353 30.552948,31.9991765 30.7359667,32 L34.4615385,32 C34.9759002,31.9998824 35.392815,31.5783529 35.3926985,31.0585882 C35.3925821,30.8261176 35.3074761,30.602 35.1535634,30.4291765 L31.4885322,26.3134118 C36.4533222,26.1232941 41.3212474,24.8685882 45.76958,22.6324706 L47.9611476,21.5256471 L54.5852141,24.3943529 C55.0584782,24.598 55.6055551,24.3752941 55.8069688,23.8970588 C55.9556424,23.5442353 55.8776383,23.1356471 55.6097464,22.864 L51.9475094,19.1623529 L55.5864615,15.7487059 C55.9635593,15.3951765 55.9855634,14.7996471 55.6355925,14.4185882 C55.45921,14.2264706 55.2115759,14.1174118 54.952183,14.1176471 L54.1530478,14 L55.8751933,1.06541176 C55.9430686,0.550117647 55.5848316,0.0768235294 55.074894,0.00823529412 C55.047806,0.00454901961 53.765045,0.00180392157 51.2266112,0 C50.9152931,0 50.6244657,0.157058824 50.4516923,0.418823529 L41.4143867,14 L31.3879418,14 L35.2765073,7.04564706 C35.4367069,6.754 35.4320499,6.39847059 35.2643992,6.11105882 C35.0970977,5.82352941 34.7916008,5.64705882 34.4615385,5.64705882 Z" id="Fill-1" fill="#C6D6FF" mask="url(#mask-2)"></path>
</symbol>

<symbol id="dog" viewBox="0 0 50 42">
    <path d="M38.5,5 C39.328375,5 40,5.671625 40,6.5 C40,7.328375 39.328375,8 38.5,8 C37.671625,8 37,7.328375 37,6.5 C37,5.671625 37.671625,5 38.5,5" id="Fill-1" fill="#BDBDBD" mask="url(#mask-2)"></path>
    <path d="M46.2112616,10.5372065 C45.4663665,11.7720978 43.6721699,12.7826087 42.2244895,12.7826087 L37.5420461,12.7826087 C36.3471389,12.7826087 35.3377671,12.0170217 34.9572877,10.9565217 L33.0452527,10.9565217 C33.2801264,12.1031902 33.9577836,13.0825435 34.8811,13.7419891 L34.8811,19.2111196 C37.5255234,21.1995 39.0251813,23.4643043 38.4402344,26.8542065 C37.9755355,29.5459728 36.3385334,30.9729457 34.2571414,32.243788 C33.8160791,35.753413 33.6825212,36.814712 33.5113284,38.1764022 C35.3628952,38.4055761 37.0306478,38.4092283 38.0395607,40.1740272 C34.2006891,40.1740272 35.0396714,40.1740272 31.2094053,40.1740272 C31.2094053,35.796212 31.2094053,35.4432065 31.2094053,31.0435924 L29.3735579,31.0435924 L29.3735579,32.8687663 C28.8872879,32.8687663 28.500383,32.8687663 27.2670378,32.8687663 C26.7004494,32.8687663 26.1720696,33.018163 25.6708833,33.2288478 C25.7609545,30.7474239 24.8582913,28.249337 23.0125763,26.4132065 L21.7146322,27.7043641 C24.4365054,30.4131359 24.2697875,34.3756304 22.7186112,36.792913 L22.1682012,37.875212 C23.596261,38.4911739 24.965,38.8757935 25.674555,40.1740272 L16.5172335,40.1740272 C12.4496842,40.170375 9.23741027,36.9114946 9.18910453,32.9679457 C9.15009278,30.7832609 10.1464989,28.5233641 12.163292,27.0290543 C14.1838715,25.5320054 25.3545438,19.1061196 27.5377106,17.8547935 C27.5377106,17.3580978 27.5386285,16.5715109 27.5363337,16.0996957 C29.6711947,15.3452935 31.2094053,13.3387663 31.2094053,10.9565217 L31.2094053,1.82608696 L36.2718692,1.82608696 C37.2457862,1.82608696 38.1794293,2.21082065 38.8678721,2.89571739 L41.1487977,5.16474457 C42.4561505,6.46514674 44.1750774,7.19033152 46.0100068,7.27216304 C46.2040329,7.93594565 46.6554219,8.48377174 47.2542524,8.80824457 L46.2112616,10.5372065 Z M2.75377106,40.173913 C2.24776562,40.173913 1.83584737,39.7642989 1.83584737,39.2608696 C1.83584737,38.7574402 2.24776562,38.3478261 2.74883722,38.3478261 C9.39701425,38.3649457 7.74853805,38.3606087 9.23786923,38.3644891 C9.9178212,39.252538 10.0285457,39.4027337 11.0697007,40.173913 L2.75377106,40.173913 Z M25.6938314,14.5891793 C23.4491637,14.5891793 22.0301684,12.6979239 22.0301684,10.7534837 L22.0301684,9.27286957 C22.0301684,8.51378804 22.3214945,7.77045652 22.8916398,7.20357065 L27.1890143,2.92927174 C27.7658146,2.35565217 28.5398537,1.97377174 29.3735579,1.87219565 L29.3735579,10.9565217 C29.3735579,12.9098641 27.7922049,14.5891793 25.6938314,14.5891793 Z M48.1613904,5.47826087 C46.035135,5.47826087 44.2100732,5.62708696 42.4473155,3.87370109 L40.1658162,1.60455978 C39.1326931,0.577157609 37.732171,0 36.2714102,0 L29.8280449,0 C28.3646451,0 26.9613692,0.576815217 25.9246892,1.60444565 L25.8910702,1.63777174 L21.5936957,5.91218478 C20.6975727,6.80331522 20.1943211,8.01207065 20.1943211,9.27241304 L20.1943211,10.7070326 C20.1943211,13.3066957 22.2685991,15.9881902 24.8539312,16.3716685 C25.1407823,16.414125 25.4235028,16.4346685 25.7018632,16.4346685 L25.7018632,16.7994293 C21.1776468,19.3929293 11.8949141,24.6228424 10.0568866,26.4374022 C8.51007049,27.9767935 7.34338948,30.4100543 7.34338948,32.8695652 C7.34338948,33.9673859 7.48773298,35.0839239 8.12947638,36.5355489 L2.75377106,36.5217391 C1.23300099,36.5217391 0,37.7481848 0,39.2608696 C0,40.7735543 1.23300099,42 2.75377106,42 L25.674555,42 C27.0383601,42 27.983592,40.5432391 27.324408,39.3558261 C26.7372811,38.29875 25.8094897,37.4555543 24.6884754,36.9716413 C25.319089,35.7257935 25.6852258,34.6947391 27.2670378,34.6947391 L29.3735579,34.6947391 L29.3735579,40.173913 C29.3735579,41.1823696 30.1955586,42 31.2094053,42 L38.0395607,42 C39.4474262,42 40.3572033,40.4727065 39.6463861,39.2634946 C38.8001752,37.8232826 37.3059102,36.806038 35.561052,36.5899891 L35.9692986,33.341038 C38.1762166,31.9936141 39.8023184,29.7549457 40.2496915,27.1632717 C40.8753712,23.536663 39.3231622,20.2615761 36.7169474,18.302413 L36.7169474,14.6086957 L42.2244895,14.6086957 C44.2441511,14.6086957 46.7464111,13.1992989 47.785386,11.4767283 C48.2233503,10.751087 50.0044665,8.11958152 49.9999916,7.29807065 C49.994943,6.34919022 49.2316895,5.47826087 48.1613904,5.47826087 Z" id="Fill-3" fill="#BDBDBD" mask="url(#mask-2)"></path>
</symbol>

<synbol id="architecture" viewBox="0 0 34 44">
    <path d="M29.6520388,7.86660156 C28.7267712,7.86660156 27.9727835,7.07929687 27.9727835,6.11103516 C27.9727835,5.45195312 28.4866232,4.915625 29.11618,4.915625 C29.5114918,4.915625 29.8321263,5.25136719 29.8321263,5.66396484 L31.8305169,5.66396484 C31.8305169,4.10234375 30.6139423,2.83203125 29.11618,2.83203125 C27.3842665,2.83203125 25.9743929,4.30292969 25.9743929,6.11103516 C25.9743929,6.47724609 26.0241465,6.83125 26.116439,7.16621094 L25.3975881,9.95019531 L8.60541023,9.95019531 L7.92460068,7.15478516 C7.97585348,6.82597656 8.02560711,6.475 8.02560711,6.11113281 C8.02560711,4.30302734 6.61582724,2.83212891 4.88391371,2.83212891 C3.38624514,2.83212891 2.16957682,4.10244141 2.16957682,5.6640625 L4.16796742,5.6640625 C4.16796742,5.25136719 4.48860192,4.91572266 4.88391371,4.91572266 C5.51347046,4.91572266 6.02731021,5.45205078 6.02731021,6.11113281 C6.02731021,7.07929687 5.27332253,7.86669922 4.34805494,7.86669922 C3.05239922,7.86669922 1.9982969,6.76582031 1.9982969,5.41240234 C1.9982969,3.57675781 3.42719115,2.08369141 5.18402835,2.08369141 L10.9991126,2.08369141 L10.9991126,4.16650391 C10.9991126,4.74179687 11.4456772,5.20869141 11.9975583,5.20869141 C12.5494395,5.20869141 12.9975032,4.74179687 12.9975032,4.16650391 L12.9975032,2.08359375 L15.995745,2.08359375 L15.995745,4.16640625 C16.0001488,4.74169922 16.4481189,5.20859375 17.0000937,5.20859375 C17.5520685,5.20859375 18.0000386,4.74169922 18.0000386,4.16640625 C18.0000386,4.13134766 17.9971339,4.09619141 17.9942293,4.06191406 L17.9942293,2.08359375 L20.9983741,2.08359375 L20.9983741,4.16640625 C20.9983741,4.74169922 21.4449387,5.20859375 21.9968198,5.20859375 C22.5487009,5.20859375 22.9967647,4.74169922 22.9967647,4.16640625 L22.9967647,2.08359375 L28.816159,2.08359375 C30.5729962,2.08359375 32.0018905,3.57666016 32.0018905,5.41230469 C32.0017968,6.765625 30.9476945,7.86660156 29.6520388,7.86660156 Z M25,13.9860822 L9,13.9860822 L9,11.9698877 L25,11.9698877 L25,13.9860822 Z M8.98706282,41 L24.9870628,41 L25,16 L9,16 L8.98706282,41 Z M4.98932394,0 C2.22092331,0.112890625 0,2.49628906 0,5.41230469 C0,7.91386719 1.95004244,9.95019531 4.34805494,9.95019531 C5.02155605,9.95019531 5.65401744,9.75869141 6.19709095,9.42685547 L7,16.1861198 L6.98706282,43.0077467 L26.9870628,43.0077467 L27,15.6972656 L27.827739,9.44199219 C28.3665024,9.76474609 28.9887507,9.95009766 29.6519451,9.95009766 C32.0500513,9.95009766 34,7.91376953 34,5.41220703 C34.0001874,2.46738281 31.7354134,0.06640625 28.9288777,0.00302734375 L4.98932394,0 Z" id="Fill-7" fill="#BDBDBD" mask="url(#mask-2)"></path>
</synbol>

<symbol id="exterior" viewBox="0 0 54 53">
                    <path d="M34,33.7497528 C34,33.3360923 33.5518605,33 32.999707,33 C32.447993,33 32,33.3360923 32,33.7497528 L32,35.2502472 C32,35.6639077 32.447993,36 32.999707,36 C33.5518605,36 34,35.6639077 34,35.2502472 L34,33.7497528 Z" id="Fill-1" fill="#BDBDBD"></path>
                    <path d="M32.999707,44 C32.447993,44 32,44.373404 32,44.8334757 L32,48.1665243 C32,48.626596 32.447993,49 32.999707,49 C33.5518605,49 34,48.626596 34,48.1665243 L34,44.8334757 C34,44.373404 33.5518605,44 32.999707,44 Z" id="Fill-2" fill="#BDBDBD"></path>
                    <path d="M37,23.7500824 C37,23.3360431 36.5518934,23 36.0003662,23 C35.4481066,23 35,23.3360431 35,23.7500824 L35,25.2499176 C35,25.6639569 35.4481066,26 36.0003662,26 C36.5518934,26 37,25.6639569 37,25.2499176 L37,23.7500824 Z" id="Fill-3" fill="#BDBDBD"></path>
                    <path d="M34,29.7500824 C34,29.3360431 33.5518605,29 32.999707,29 C32.447993,29 32,29.3360431 32,29.7500824 L32,31.2499176 C32,31.6639569 32.447993,32 32.999707,32 C33.5518605,32 34,31.6639569 34,31.2499176 L34,29.7500824 Z" id="Fill-4" fill="#BDBDBD"></path>
                    <path d="M34,39.7497528 C34,39.3360923 33.5518605,39 32.999707,39 C32.447993,39 32,39.3360923 32,39.7497528 L32,41.2501373 C32,41.6639077 32.447993,42 32.999707,42 C33.5518605,42 34,41.6639077 34,41.2501373 L34,39.7497528 Z" id="Fill-5" fill="#BDBDBD"></path>
                    <path d="M37,29.7500824 C37,29.3360431 36.5518934,29 36.0003662,29 C35.4481066,29 35,29.3360431 35,29.7500824 L35,31.2499176 C35,31.6639569 35.4481066,32 36.0003662,32 C36.5518934,32 37,31.6639569 37,31.2499176 L37,29.7500824 Z" id="Fill-6" fill="#BDBDBD"></path>
                    <path d="M31,23.7500824 C31,23.3360431 30.552007,23 30.000293,23 C29.4481395,23 29,23.3360431 29,23.7500824 L29,25.2499176 C29,25.6639569 29.4481395,26 30.000293,26 C30.552007,26 31,25.6639569 31,25.2499176 L31,23.7500824 Z" id="Fill-7" fill="#BDBDBD"></path>
                    <path d="M34,23.7500824 C34,23.3360431 33.5518605,23 32.999707,23 C32.447993,23 32,23.3360431 32,23.7500824 L32,25.2499176 C32,25.6639569 32.447993,26 32.999707,26 C33.5518605,26 34,25.6639569 34,25.2499176 L34,23.7500824 Z" id="Fill-8" fill="#BDBDBD"></path>
                    <path d="M37,14.2502472 L37,12.7497528 C37,12.3360923 36.5518934,12 36.0003662,12 C35.4481066,12 35,12.3360923 35,12.7497528 L35,14.2502472 C35,14.6639077 35.4481066,15 36.0003662,15 C36.5518934,15 37,14.6639077 37,14.2502472 Z" id="Fill-9" fill="#BDBDBD"></path>
                    <path d="M31,29.7500824 C31,29.3360431 30.552007,29 30.000293,29 C29.4481395,29 29,29.3360431 29,29.7500824 L29,31.2499176 C29,31.6639569 29.4481395,32 30.000293,32 C30.552007,32 31,31.6639569 31,31.2499176 L31,29.7500824 Z" id="Fill-10" fill="#BDBDBD"></path>
                    <path d="M41,12.7497528 C41,12.3360923 40.552007,12 39.999707,12 C39.4481395,12 39,12.3360923 39,12.7497528 L39,14.2502472 C39,14.6639077 39.4481395,15 39.999707,15 C40.552007,15 41,14.6639077 41,14.2502472 L41,12.7497528 Z" id="Fill-11" fill="#BDBDBD"></path>
                    <path d="M30.000293,33 C29.4481395,33 29,33.3360923 29,33.7497528 L29,35.2502472 C29,35.6639077 29.4481395,36 30.000293,36 C30.552007,36 31,35.6639077 31,35.2502472 L31,33.7497528 C31,33.3360923 30.552007,33 30.000293,33 Z" id="Fill-12" fill="#BDBDBD"></path>
                    <path d="M44,39.7497528 C44,39.3360923 43.5518605,39 43.000293,39 C42.447993,39 42,39.3360923 42,39.7497528 L42,41.2501373 C42,41.6639077 42.447993,42 43.000293,42 C43.5518605,42 44,41.6639077 44,41.2501373 L44,39.7497528 Z" id="Fill-13" fill="#BDBDBD"></path>
                    <path d="M43.000293,44 C42.447993,44 42,44.373404 42,44.8334757 L42,48.1665243 C42,48.626596 42.447993,49 43.000293,49 C43.5518605,49 44,48.626596 44,48.1665243 L44,44.8334757 C44,44.373404 43.5518605,44 43.000293,44 Z" id="Fill-14" fill="#BDBDBD"></path>
                    <path d="M45.9996338,33 C45.4481066,33 45,33.3360923 45,33.7497528 L45,35.2502472 C45,35.6639077 45.4481066,36 45.9996338,36 C46.5518934,36 47,35.6639077 47,35.2502472 L47,33.7497528 C47,33.3360923 46.5518934,33 45.9996338,33 Z" id="Fill-15" fill="#BDBDBD"></path>
                    <path d="M32.908758,16.6664931 C33.410679,16.6664931 33.8180486,16.2681825 33.8180486,15.7779442 L33.8180486,12.0277834 L42.9090909,9.80510909 L42.9090909,24.6666884 C42.9090909,25.0375247 43.1446702,25.3686472 43.4989047,25.4998983 L50,28 L50,37 C50,37.4902384 50.589321,38 51.091242,38 C51.5927635,38 52,37.6016895 52,37.1114511 L52,27.3335069 C52,26.9626706 51.7649534,26.6310273 51.4101862,26.500297 L45.0613612,23.9115883 L45.0613612,6.8885489 C45.0613612,6.39831053 44.3197699,6 43.8183816,6 C43.3163274,6 42.9090909,6.39831053 42.9090909,6.8885489 L42.9090909,7.97241188 L32.688227,10.4708697 C32.2835208,10.5695684 32,10.9250401 32,11.3329861 L32,15.7779442 C32,16.2681825 32.4072365,16.6664931 32.908758,16.6664931 Z" id="Fill-16" fill="#BDBDBD"></path>
                    <path d="M47,29.7500824 C47,29.3360431 46.5518934,29 45.9996338,29 C45.4481066,29 45,29.3360431 45,29.7500824 L45,31.2499176 C45,31.6639569 45.4481066,32 45.9996338,32 C46.5518934,32 47,31.6639569 47,31.2499176 L47,29.7500824 Z" id="Fill-17" fill="#BDBDBD"></path>
                    <path d="M44,29.7500824 C44,29.3360431 43.5518605,29 43.000293,29 C42.447993,29 42,29.3360431 42,29.7500824 L42,31.2499176 C42,31.6639569 42.447993,32 43.000293,32 C43.5518605,32 44,31.6639569 44,31.2499176 L44,29.7500824 Z" id="Fill-18" fill="#BDBDBD"></path>
                    <path d="M37,39.7497528 C37,39.3360923 36.5518934,39 36.0003662,39 C35.4481066,39 35,39.3360923 35,39.7497528 L35,41.2501373 C35,41.6639077 35.4481066,42 36.0003662,42 C36.5518934,42 37,41.6639077 37,41.2501373 L37,39.7497528 Z" id="Fill-19" fill="#BDBDBD"></path>
                    <path d="M44,33.7497528 C44,33.3360923 43.5518605,33 43.000293,33 C42.447993,33 42,33.3360923 42,33.7497528 L42,35.2502472 C42,35.6639077 42.447993,36 43.000293,36 C43.5518605,36 44,35.6639077 44,35.2502472 L44,33.7497528 Z" id="Fill-20" fill="#BDBDBD"></path>
                    <path d="M36.0003662,44 C35.4481066,44 35,44.373404 35,44.8334757 L35,48.1665243 C35,48.626596 35.4481066,49 36.0003662,49 C36.5518934,49 37,48.626596 37,48.1665243 L37,44.8334757 C37,44.373404 36.5518934,44 36.0003662,44 Z" id="Fill-21" fill="#BDBDBD"></path>
                    <path d="M37,33.7497528 C37,33.3360923 36.5518934,33 36.0003662,33 C35.4481066,33 35,33.3360923 35,33.7497528 L35,35.2502472 C35,35.6639077 35.4481066,36 36.0003662,36 C36.5518934,36 37,35.6639077 37,35.2502472 L37,33.7497528 Z" id="Fill-22" fill="#BDBDBD"></path>
                    <path d="M39.1665175,48 C39.6267151,48 40,47.6108618 40,47.1319127 L40,19.3417985 C40,18.9432467 39.7392621,18.5958337 39.3691509,18.4995351 L25.0361159,15.0260411 C24.7885614,14.9609091 24.5225745,15.0195533 24.3207956,15.1840371 C24.1181621,15.3480119 24,15.6009072 24,15.8683046 L24,34.973857 C24,35.4528061 24.3732849,35.8419443 24.8334825,35.8419443 C25.293558,35.8419443 25.9545368,35.4528061 25.9545368,34.973857 L25.9545368,17.1243345 L38,20 L38,47.1319127 C38.0004883,47.6108618 38.7069302,48 39.1665175,48 Z" id="Fill-23" fill="#BDBDBD"></path>
                    <path d="M20,18.7497528 C20,18.3360923 19.5518934,18 18.9996338,18 C18.4481066,18 18,18.3360923 18,18.7497528 L18,20.2498077 C18,20.6639077 18.4481066,21 18.9996338,21 C19.5518934,21 20,20.6639077 20,20.2498077 L20,18.7497528 Z" id="Fill-24" fill="#BDBDBD"></path>
                    <path d="M20,12.7497528 C20,12.3360923 19.5518934,12 18.9996338,12 C18.4481066,12 18,12.3360923 18,12.7497528 L18,14.2502472 C18,14.6639077 18.4481066,15 18.9996338,15 C19.5518934,15 20,14.6639077 20,14.2502472 L20,12.7497528 Z" id="Fill-25" fill="#BDBDBD"></path>
                    <path d="M13,39.7497528 C13,39.3360923 12.552007,39 11.999707,39 C11.447993,39 11,39.3360923 11,39.7497528 L11,41.2501373 C11,41.6639077 11.4475535,42 11.999707,42 C12.552007,42 13,41.6639077 13,41.2501373 L13,39.7497528 Z" id="Fill-26" fill="#BDBDBD"></path>
                    <path d="M3.85730429,30.8572864 C4.33052922,30.8572864 5.00229904,30.473201 5.00229904,29.9999686 L5.00229904,26.0058593 L13.9587351,26.0058593 L13.9587351,47.1426823 C13.9587351,47.6159146 14.6698474,48 15.1431979,48 C15.6159206,48 16,47.6159146 16,47.1426823 L16,24.8569411 C16,24.3840854 15.6159206,24 15.1431979,24 L3.85730429,24 C3.38395379,24 3,24.3840854 3,24.8569411 L3,29.9999686 C3,30.473201 3.38395379,30.8572864 3.85730429,30.8572864 Z" id="Fill-27" fill="#BDBDBD"></path>
                    <path d="M14,18.7497528 L14,20.2498077 C14,20.6639077 14.447993,21 15.000293,21 C15.5518605,21 16,20.6639077 16,20.2498077 L16,18.7497528 C16,18.3360923 15.5518605,18 15.000293,18 C14.447993,18 14,18.3360923 14,18.7497528 Z" id="Fill-28" fill="#BDBDBD"></path>
                    <path d="M20,8.75008239 C20,8.33604306 19.5518934,8 18.9996338,8 C18.4481066,8 18,8.33604306 18,8.75008239 L18,10.2499176 C18,10.6639569 18.4481066,11 18.9996338,11 C19.5518934,11 20,10.6639569 20,10.2499176 L20,8.75008239 Z" id="Fill-29" fill="#BDBDBD"></path>
                    <g id="Group-33" transform="translate(0.000000, 34.000000)">
                        <path d="M11.4720439,9.88578947 C10.9848317,9.88578947 10.5899171,10.2882895 10.5899171,10.7842105 L10.5899171,14.3769737 C10.5899171,14.8728947 10.9848317,15.2753947 11.4720439,15.2753947 C11.9593854,15.2753947 12.3546878,14.8728947 12.3546878,14.3769737 L12.3546878,10.7842105 C12.3546878,10.2882895 11.9593854,9.88578947 11.4720439,9.88578947 Z" id="Fill-30" fill="#BDBDBD"></path>
                        <path d="M4.984113,18 L5.04581342,18 L5.04581342,7.32488695 L5.77989673,7.1223913 C7.07998732,6.76376348 8.00874507,5.53693729 8.00874507,4.11338881 C8.00874507,2.38796329 6.65773062,1 5.00485837,1 C3.35198613,1 2.00097167,2.38796329 2.00097167,4.11338881 C2.00097167,5.54286136 2.93741214,6.7734064 4.24483329,7.12648921 L4.984113,7.32613945 L4.984113,18 Z M25.0004497,18 L26.9996119,18 L26,17.999224 L26,17.4995505 L26,17.9991009 L25.0004497,18 Z M49.9628203,18 L50.0154933,18 L50.0154933,12.0238994 L49.9628203,12.0238994 L49.9628203,18 Z" id="Fill-32" stroke="#BDBDBD" stroke-width="2"></path>
                        <circle id="Oval-5" stroke="#BDBDBD" stroke-width="2" cx="26" cy="10" r="3"></circle>
                        <circle id="Oval-5" stroke="#BDBDBD" stroke-width="2" cx="50" cy="9" r="3"></circle>
                    </g>
                    <path d="M8,44.8334757 L8,48.1665243 C8,48.626596 8.44810664,49 9.00021973,49 C9.55189336,49 10,48.626596 10,48.1665243 L10,44.8334757 C10,44.373404 9.55189336,44 9.00021973,44 C8.44810664,44 8,44.373404 8,44.8334757 Z" id="Fill-34" fill="#BDBDBD"></path>
                    <path d="M13,29.7500824 C13,29.3360431 12.552007,29 11.999707,29 C11.447993,29 11,29.3360431 11,29.7500824 L11,31.2499176 C11,31.6639569 11.447993,32 11.999707,32 C12.552007,32 13,31.6639569 13,31.2499176 L13,29.7500824 Z" id="Fill-35" fill="#BDBDBD"></path>
                    <path d="M13,33.7497528 C13,33.3360923 12.552007,33 11.999707,33 C11.447993,33 11,33.3360923 11,33.7497528 L11,35.2502472 C11,35.6639077 11.447993,36 11.999707,36 C12.552007,36 13,35.6639077 13,35.2502472 L13,33.7497528 Z" id="Fill-36" fill="#BDBDBD"></path>
                    <path d="M8,29.7500824 L8,31.2499176 C8,31.6639569 8.44810664,32 9.00021973,32 C9.55189336,32 10,31.6639569 10,31.2499176 L10,29.7500824 C10,29.3360431 9.55189336,29 9.00021973,29 C8.44810664,29 8,29.3360431 8,29.7500824 Z" id="Fill-37" fill="#BDBDBD"></path>
                    <path d="M20,33.7497528 C20,33.3360923 19.5518934,33 18.9996338,33 C18.4481066,33 18,33.3360923 18,33.7497528 L18,35.2502472 C18,35.6639077 18.4481066,36 18.9996338,36 C19.5518934,36 20,35.6639077 20,35.2502472 L20,33.7497528 Z" id="Fill-38" fill="#BDBDBD"></path>
                    <path d="M23,23.7500824 C23,23.3360431 22.552007,23 22.000293,23 C21.447993,23 21,23.3360431 21,23.7500824 L21,25.2499176 C21,25.6639569 21.447993,26 22.000293,26 C22.552007,26 23,25.6639569 23,25.2499176 L23,23.7500824 Z" id="Fill-39" fill="#BDBDBD"></path>
                    <path d="M23,18.7497528 C23,18.3360923 22.552007,18 22.000293,18 C21.447993,18 21,18.3360923 21,18.7497528 L21,20.2498077 C21,20.6639077 21.447993,21 22.000293,21 C22.552007,21 23,20.6639077 23,20.2498077 L23,18.7497528 Z" id="Fill-40" fill="#BDBDBD"></path>
                    <path d="M23,29.7500824 C23,29.3360431 22.552007,29 22.000293,29 C21.447993,29 21,29.3360431 21,29.7500824 L21,31.2499176 C21,31.6639569 21.447993,32 22.000293,32 C22.552007,32 23,31.6639569 23,31.2499176 L23,29.7500824 Z" id="Fill-41" fill="#BDBDBD"></path>
                    <path d="M22.000293,33 C21.447993,33 21,33.3360923 21,33.7497528 L21,35.2502472 C21,35.6639077 21.447993,36 22.000293,36 C22.552007,36 23,35.6639077 23,35.2502472 L23,33.7497528 C23,33.3360923 22.552007,33 22.000293,33 Z" id="Fill-42" fill="#BDBDBD"></path>
                    <path d="M23,12.7497528 C23,12.3360923 22.552007,12 22.000293,12 C21.447993,12 21,12.3360923 21,12.7497528 L21,14.2502472 C21,14.6639077 21.447993,15 22.000293,15 C22.552007,15 23,14.6639077 23,14.2502472 L23,12.7497528 Z" id="Fill-43" fill="#BDBDBD"></path>
                    <path d="M20,39.7497528 C20,39.3360923 19.5518934,39 18.9996338,39 C18.4481066,39 18,39.3360923 18,39.7497528 L18,41.2501373 C18,41.6639077 18.4481066,42 18.9996338,42 C19.5518934,42 20,41.6639077 20,41.2501373 L20,39.7497528 Z" id="Fill-44" fill="#BDBDBD"></path>
                    <path d="M11.8330146,23 C12.2932234,23 12.97583,22.6032159 12.97583,22.1152052 L12.97583,15.4650038 L15.5389774,14.0608253 C15.8213283,13.9105086 15.9996745,13.604692 15.9996745,13.2690713 L15.9996745,5.85457373 L20.1663344,3.64297546 L24.0059933,5.85457373 L24.0059933,13.2690713 C24.0059933,13.7576003 24.7062883,14.1539957 25.1664971,14.1539957 C25.6265839,14.1539957 26,13.7576003 26,13.2690713 L26,5.30786176 C26,4.972241 25.8216538,4.66655399 25.5388146,4.51623735 L20.9998372,2.10728371 L20.9998372,0.884794808 C20.9998372,0.39639533 20.6264211,0 20.1663344,0 C19.7066138,0 19.3333198,0.39639533 19.3333198,0.884794808 L19.3333198,2.10728371 L14.7942203,4.51571902 C14.5115032,4.66655399 14.0343154,4.972241 14.0343154,5.30786176 L14.0343154,12.6931004 L11.460575,14.2465182 C11.1783462,14.3969644 11,14.7031697 11,15.0382721 L11,22.1152052 C11,22.6037343 11.3729278,23 11.8330146,23 Z" id="Fill-45" fill="#BDBDBD"></path>
                    <path d="M20,29.7500824 C20,29.3360431 19.5518934,29 18.9996338,29 C18.4481066,29 18,29.3360431 18,29.7500824 L18,31.2499176 C18,31.6639569 18.4481066,32 18.9996338,32 C19.5518934,32 20,31.6639569 20,31.2499176 L20,29.7500824 Z" id="Fill-46" fill="#BDBDBD"></path>
                    <path d="M18.9996338,44 C18.4481066,44 18,44.373404 18,44.8334757 L18,48.1665243 C18,48.626596 18.4481066,49 18.9996338,49 C19.5518934,49 20,48.626596 20,48.1665243 L20,44.8334757 C20,44.373404 19.5518934,44 18.9996338,44 Z" id="Fill-47" fill="#BDBDBD"></path>
                    <path d="M23,8.75008239 C23,8.33604306 22.552007,8 22.000293,8 C21.447993,8 21,8.33604306 21,8.75008239 L21,10.2499176 C21,10.6639569 21.447993,11 22.000293,11 C22.552007,11 23,10.6639569 23,10.2499176 L23,8.75008239 Z" id="Fill-48" fill="#BDBDBD"></path>
                    <path d="M20,23.7500824 C20,23.3360431 19.5518934,23 18.9996338,23 C18.4481066,23 18,23.3360431 18,23.7500824 L18,25.2499176 C18,25.6639569 18.4481066,26 18.9996338,26 C19.5518934,26 20,25.6639569 20,25.2499176 L20,23.7500824 Z" id="Fill-49" fill="#BDBDBD"></path>
</symbol>

<symbol if="car" viewBox="0 0 64 23">
    <path d="M4.99903479,12.4144357 L6.41305916,11.0005 L9.41311087,11.0005 L12.5211644,7.89264124 L9.09110532,5.32275806 L12.4121626,2.00090905 L15.5842172,2.00090905 L12.4291629,5.15576565 L16.6602358,7.97763738 L23.2523494,8.4876142 L24.8003761,17.0002273 L18.9992761,17.0002273 C18.9992761,14.2433526 16.7562374,12.0004545 13.9991899,12.0004545 C11.2421424,12.0004545 8.99910373,14.2433526 8.99910373,17.0002273 L7.9990865,17.0002273 C6.34505799,17.0002273 4.99903479,15.6542884 4.99903479,14.0003636 L4.99903479,12.4144357 Z M6.99906926,7.41466297 L7.66308071,6.75069315 L9.47611195,8.10863143 L8.58409658,9.00059088 L6.99906926,9.00059088 L6.99906926,7.41466297 Z M18.413266,2.00090905 L24.2443665,2.00090905 L25.5743894,6.65669742 L17.3372474,6.02272624 L15.568217,4.84477978 L18.413266,2.00090905 Z M41.9996725,9.92654879 L41.9996725,12.8084178 L40.3226436,17.0002273 L26.8344111,17.0002273 L25.3143849,8.64360711 L41.9996725,9.92654879 Z M31.9995002,2.00090905 C34.4425423,2.00090905 36.8335835,2.66387891 38.9156194,3.91882187 L44.1307092,7.04467979 L42.7326852,7.97663743 L27.7004261,6.81669015 L27.4294214,5.86873324 L26.3254024,1.9999091 L31.9995002,2.00090905 Z M46.2987466,8.0036362 C48.6607873,8.04863415 51.017828,8.62760784 53.1328644,9.68555975 L55.9729134,11.1044953 C56.4419214,11.3394846 56.8709288,11.6434708 57.2529354,12.0004545 L54.9998966,12.0004545 L54.9998966,14.0003636 L58.6159589,14.0003636 C58.8659632,14.6333348 58.9999655,15.3133039 58.9999655,16.0002727 C58.9999655,16.5512477 58.5519578,17.0002273 57.9999483,17.0002273 L53.9998793,17.0002273 C53.9998793,14.2433526 51.7568407,12.0004545 48.9997932,12.0004545 C46.2427456,12.0004545 43.999707,14.2433526 43.999707,17.0002273 L42.4766807,17.0002273 L43.999707,13.1924003 L43.999707,9.53556657 L46.2987466,8.0036362 Z M51.9088433,17.7171947 C51.9068433,17.7261943 51.9058433,17.7341939 51.9038432,17.7431935 L51.8968431,17.7671924 C51.5558372,19.0831326 50.3668167,20.0010909 48.9997932,20.0010909 C47.6287695,20.0010909 46.435749,19.0771329 46.0927431,17.7301941 C46.029742,17.5082042 45.9997415,17.270215 45.9997415,17.0012272 C45.9997415,15.3473024 47.3457647,14.0013636 48.9997932,14.0013636 C50.6538217,14.0013636 51.9998449,15.3473024 51.9998449,17.0012272 C51.9998449,17.2642153 51.9688443,17.4982046 51.9088433,17.7171947 Z M16.9082401,17.7171947 C16.90624,17.7261943 16.90524,17.7341939 16.90324,17.7431935 L16.8962398,17.7671924 C16.555234,19.0831326 15.3662135,20.0010909 13.9991899,20.0010909 C12.6281663,20.0010909 11.4351457,19.0771329 11.0921398,17.7301941 C11.0291387,17.5082042 10.9991382,17.270215 10.9991382,17.0012272 C10.9991382,15.3473024 12.3451614,14.0013636 13.9991899,14.0013636 C15.6532184,14.0013636 16.9992416,15.3473024 16.9992416,17.0012272 C16.9992416,17.2642153 16.9682411,17.4982046 16.9082401,17.7171947 Z M7.9990865,19.0001364 L9.42111101,19.0001364 C10.2011245,20.7990546 11.9821551,22 13.9991899,22 C16.0212248,22 17.8072555,20.791055 18.5792689,19.0001364 L44.4207142,19.0001364 C45.2007277,20.7990546 46.9817584,22 48.9987932,22 C51.020828,22 52.8068588,20.791055 53.5788721,19.0001364 L57.9999483,19.0001364 C59.6539768,19.0001364 61,17.6541975 61,16.0002727 C61,14.7923276 60.7039949,13.5943821 60.1419852,12.5294305 C60.0639839,12.3824372 59.9729823,12.2224444 59.8799807,12.0734512 C59.144968,10.8875051 58.1039501,9.93454843 56.8669288,9.31557656 L54.0268798,7.89564111 C51.6328386,6.69869551 48.9637925,6.05272488 46.2897465,6.00872688 L39.9456371,2.20389982 C37.5535959,0.76296532 34.8065485,0 31.9995002,0 L11.5851483,0 L5.00003481,6.58570065 L5.00003481,9.58556429 L3.00000033,11.5854734 L3.00000033,13.9993637 C2.99900032,16.7572383 5.24203898,19.0001364 7.9990865,19.0001364 Z" id="Fill-11" fill="#BDBDBD"></path>
</symbol>

<symbol id="character" viewBox="0 0 43 52">
    <path d="M15.5,15 C16.328353,15 17,15.6715591 17,16.5 C17,17.3284409 16.328353,18 15.5,18 C14.6715591,18 14,17.3284409 14,16.5 C14,15.6715591 14.6715591,15 15.5,15" id="Fill-1" fill="#BDBDBD"></path>
    <path d="M26.5,15 C27.3284409,15 28,15.6715591 28,16.5 C28,17.3284409 27.3284409,18 26.5,18 C25.671647,18 25,17.3284409 25,16.5 C25,15.6715591 25.671647,15 26.5,15" id="Fill-2" fill="#BDBDBD"></path>
    <path d="M20.3374338,24 L19.6689133,24 C19.4770457,24 19.2945011,23.8922154 19.1675034,23.7036695 C19.0405057,23.5151235 18.9816683,23.2644139 19.0050152,23.0145263 L19.673614,16 L21,16.2174187 L20.3374338,23.1784123 L20.3374338,24" id="Fill-3" fill="#BDBDBD"></path>
    <path d="M32.7999625,21 L32,21 L32,19.25 L32.7999625,19.25 C33.6824244,19.25 34.3999813,18.4651813 34.3999813,17.5 C34.3999813,16.5349212 33.6824244,15.75 32.7999625,15.75 L32,15.75 L32,14 L32.7999625,14 C34.5647925,14 36,15.5697398 36,17.5 C36,19.4302602 34.5647925,21 32.7999625,21" id="Fill-4" fill="#BDBDBD"></path>
    <path d="M11,21 L10.2000375,21 C8.43520754,21 7,19.4302602 7,17.5 C7,15.5697398 8.43520754,14 10.2000375,14 L11,14 L11,15.75 L10.2000375,15.75 C9.31757564,15.75 8.60001875,16.5349212 8.60001875,17.5 C8.60001875,18.4651813 9.31757564,19.25 10.2000375,19.25 L11,19.25 L11,21" id="Fill-5" fill="#BDBDBD"></path>
    <path d="M21.6158406,38 C17.4051209,37.9991667 13.5189725,35.7022274 11.4737895,32.0054166 L11.1482852,31.4223017 C10.3945457,30.0613878 9.99917199,28.5218312 10.0000013,26.968004 L10,14 L11.7692313,14 L11.7692313,26.9689415 C11.768402,28.2204823 12.0876865,29.4613982 12.692772,30.5555459 L13.01838,31.1378275 C14.7539193,34.2738147 18.0473181,36.221385 21.6150112,36.2222184 C25.4967021,36.216906 29.0236554,33.907571 30.5991377,30.3422163 C31.0202201,29.3894203 31.2325235,28.3777712 31.2307612,27.3351852 L31.2307612,14 L33,14 L32.9999912,27.3334144 C33.0017535,28.6249544 32.7381365,29.8800368 32.2161893,31.0622038 C30.3567718,35.271089 26.1964327,37.9938543 21.6158406,38" id="Fill-6" fill="#BDBDBD"></path>
    <path d="M20.999947,29 C19.9834308,29 18.9668086,28.8527513 18,28.5592175 L18.5733868,27 C20.138065,27.4753782 21.8609811,27.4753782 23.4274611,27 L24,28.5592175 C23.0322376,28.8527513 22.0157213,29 20.999947,29" id="Fill-7" fill="#BDBDBD"></path>

                        <path d="M17.8602805,27.9225641 C17.6124842,27.9225641 17.3638552,27.8709744 17.132086,27.7676923 C16.6986244,27.5751795 16.3682986,27.2285128 16.1995973,26.7909744 L15.5707919,25.1761026 C15.4402851,24.8356923 15.1063167,24.6090256 14.738629,24.6090256 L8.30882805,24.6090256 C7.93406335,24.5888205 7.59208145,24.8312821 7.46063801,25.1735385 L6.82829412,26.7952821 C6.69508145,27.1436923 6.44197738,27.4491282 6.11789593,27.6512821 C5.71825792,27.9007179 5.24223077,27.9804103 4.77952489,27.8806154 C4.316819,27.7781538 3.92155204,27.5033846 3.66761538,27.1086154 L0.115208145,21.5763077 L1.61614027,20.6407179 L5.16844344,26.1721026 L5.79995475,24.5494359 C6.19241176,23.5281026 7.17287783,22.8375385 8.31590498,22.8585641 L14.7368597,22.8585641 C15.8362805,22.8585641 16.8372489,23.5394872 17.2279367,24.5521026 L17.8576787,26.1677949 L21.4295475,20.6380513 L22.9287104,21.5772308 L19.3585068,27.1095385 C19.1543167,27.426359 18.8442851,27.6748718 18.489086,27.808 C18.2857285,27.8849231 18.0734208,27.9225641 17.8602805,27.9225641" id="Fill-8"></path>
                        <path d="M2.55747511,2.48492308 C2.36920814,2.68194872 2.21559729,2.89723077 2.09476923,3.13179487 C1.40206335,4.47958974 1.95177376,6.13117949 3.31949321,6.81384615 C3.70133484,7.00287179 4.1320905,7.10358974 4.56284615,7.10441026 L18.7954751,7.10441026 C18.8442851,6.32810256 18.4775339,5.67784615 18.2181855,5.32071795 C17.4704253,4.29405128 16.1480814,3.60348718 14.9260633,3.60348718 L3.67385973,3.60348718 C3.33718552,3.60348718 3.0299638,3.41620513 2.87895475,3.11948718 L2.55747511,2.48492308 Z M19.5175294,8.85405128 L4.5619095,8.85405128 C3.8549457,8.85312821 3.1498552,8.68769231 2.52021719,8.37610256 C0.276832579,7.25671795 -0.624642534,4.54964103 0.510371041,2.3414359 C0.717371041,1.93794872 0.984628959,1.56769231 1.30433937,1.24297436 L2.14180995,0.373948718 C2.34162896,0.167384615 2.62938914,0.0710769231 2.91714932,0.111384615 C3.20314027,0.153333333 3.45093665,0.330153846 3.58061086,0.58574359 L4.22357014,1.85220513 L14.9260633,1.85220513 C16.7208959,1.85220513 18.579629,2.81323077 19.6613575,4.29928205 C20.5636652,5.53866667 20.8105249,6.94512821 20.3585385,8.25887179 C20.2359412,8.61589744 19.8976018,8.85405128 19.5175294,8.85405128 Z" id="Fill-10"></path>
                  
                    <path d="M31.8672186,15 C31.6165486,15 31.3711721,14.892851 31.2002182,14.6978646 L25,7.60993505 L26.3340008,6.44302804 L31.1595298,11.9601652 L31.2153726,11.3027353 C31.354357,9.7087895 30.4048208,8.21327135 28.9052635,7.66392488 L29.5155907,6 C31.7644595,6.82490223 33.1887638,9.06828329 32.9797164,11.4551527 L32.7494943,14.189322 C32.7202235,14.543786 32.4810749,14.8459213 32.1436304,14.9566005 C32.0532231,14.9858796 31.9593905,15 31.8672186,15" id="Fill-12" fill="#BDBDBD"></path>
                    
                        <path d="M8.5335,8.59306998 C8.4447,8.59306998 8.3551,8.57925508 8.2672,8.54979684 C7.9421,8.44141084 7.7117,8.14581264 7.6827,7.79911964 L7.4608,5.12055305 C7.2782,2.97690745 8.3876,0.971918736 10.2871,0.0149322799 L11.0457,1.56829571 C9.7794,2.20632054 9.0395,3.54291196 9.1615,4.97326185 L9.2153,5.61900677 L13.8643,0.221241535 L15.1486,1.36290068 L9.1752,8.29747178 C9.0105,8.48905192 8.775,8.59306998 8.5335,8.59306998" id="Fill-13" fill="#BDBDBD" mask="url(#mask-2)"></path>
                        <path d="M2.28072005,45 L0,45 L0,37.198544 C0,33.3065011 2.8638,29.9821896 6.6629,29.465553 L13.2132,28.6836907 C13.7935,28.6125847 14.3422,28.3403499 14.7561,27.9182844 L15.9653,29.1422235 C15.2817,29.8391648 14.3763,30.2873363 13.4146,30.4051693 L6.8754,31.1853047 C3.9339,31.5858352 1.94096665,34.1707449 1.94186665,37.198544 L1.94186665,45 L2.28072005,45 Z" id="Fill-15" fill="#BDBDBD" mask="url(#mask-2)"></path>
    <path d="M21.5042679,43 C21.5008536,43 21.4974393,43 21.4948283,43 C18.031101,43 14.9127222,40.9986039 13.5484001,37.8997627 L13,36.6579785 L14.5750058,36 L15.1235062,37.242566 C16.2177958,39.7269161 18.7183836,41.3321374 21.4957321,41.3321374 C21.4982426,41.3321374 21.5008536,41.3321374 21.5034645,41.3321374 C24.2808131,41.3321374 26.7822042,39.7269161 27.8764938,37.242566 L28.4248938,36 L30,36.6579785 L29.4515999,37.9005445 C28.0864744,40.9978221 24.9671918,43 21.5042679,43" id="Fill-17" fill="#BDBDBD"></path>
    <path d="M8.98706677,52 L8.98706677,48.9819966 L3,48.9819966 L3,47 L10.1110648,47 C10.6017812,47 11,47.3725513 11,47.8333822 L11,52 L8.98706677,52 Z" id="Fill-18" fill="#BDBDBD"></path>
    <path d="M38.0149133,52 L38.0149133,44.2354953 C38.0149133,41.2220372 36.0573276,38.6484609 33.0955376,38.2499286 L26.5579915,37.475207 C25.5933452,37.357831 24.6859262,36.9117822 24,36.2181419 L25.2109945,35 C25.6266192,35.4201675 26.1774448,35.6911128 26.7607427,35.761781 L33.3094134,36.5382214 C37.1289118,37.0524109 40,40.3618869 40,44.2354953 L40,52 L38.0149133,52 Z" id="Fill-19" fill="#BDBDBD"></path>
    <path d="M31,52 L31,47.8333822 C31,47.3725513 31.3973907,47 31.8889468,47 L39,47 L39,49 L33,49 L32.993641,52 L31,52 Z" id="Fill-20" fill="#BDBDBD"></path>
    <path d="M0,51 L41,51" id="Line-5" stroke="#BDBDBD" stroke-width="2" stroke-linecap="round"></path>
</symbol>
</svg>